<svg xmlns="http://www.w3.org/2000/svg" width="128" height="128" viewBox="0 0 128 128">
  <defs>
    <filter id="g" x="-20%" y="-20%" width="140%" height="140%">
      <feTurbulence type="fractalNoise" baseFrequency="0.9" numOctaves="4" stitchTiles="stitch" result="n"/>
      <feColorMatrix type="matrix" values="0 0 0 0 0.12  0 0 0 0 0.1  0 0 0 0 0.08  0 0 0 0.55 0" in="n"/>
    </filter>
  </defs>
  <rect width="128" height="128" fill="#1a1612"/>
  <rect width="128" height="128" filter="url(#g)" opacity="0.85"/>
  <g fill="none" stroke="#2a241c" stroke-width="1" opacity="0.45">
    <path d="M0 32h128M0 64h128M0 96h128M32 0v128M64 0v128M96 0v128"/>
  </g>
  <g fill="#0e0c0a" opacity="0.25">
    <rect x="8" y="10" width="18" height="12" rx="1"/>
    <rect x="52" y="40" width="22" height="10" rx="1"/>
    <rect x="90" y="72" width="16" height="14" rx="1"/>
    <rect x="20" y="88" width="28" height="11" rx="1"/>
    <rect x="70" y="14" width="20" height="9" rx="1"/>
  </g>
  <g fill="#3a342c" opacity="0.2">
    <rect x="40" y="8" width="14" height="8" rx="1"/>
    <rect x="100" y="48" width="12" height="10" rx="1"/>
    <rect x="12" y="56" width="16" height="9" rx="1"/>
  </g>
</svg>
